<?xml version="1.0" standalone="no"?>
<!DOCTYPE svg PUBLIC "-//W3C//DTD SVG 20010904//EN"
 "http://www.w3.org/TR/2001/REC-SVG-20010904/DTD/svg10.dtd">
<svg version="1.0" xmlns="http://www.w3.org/2000/svg"
 width="700.000000pt" height="700.000000pt" viewBox="0 0 700.000000 700.000000"
 preserveAspectRatio="xMidYMid meet">
<metadata>
Created by potrace 1.14, written by Peter Selinger 2001-2017
</metadata>
<g transform="translate(0.000000,700.000000) scale(0.100000,-0.100000)"
fill="#000000" stroke="none">
<path d="M2438 6995 c-1 -1 -95 -6 -208 -10 -113 -4 -221 -8 -240 -10 -198
-15 -263 -23 -405 -51 -88 -17 -270 -66 -325 -88 -194 -77 -308 -135 -435
-224 -270 -188 -492 -464 -620 -767 -48 -114 -103 -289 -121 -385 -2 -14 -9
-47 -15 -75 -5 -27 -12 -70 -15 -95 -2 -25 -6 -54 -9 -65 -4 -19 -11 -93 -20
-210 -28 -362 -29 -2712 0 -3020 2 -27 7 -80 9 -118 26 -327 125 -667 268
-916 81 -142 158 -241 288 -371 212 -212 411 -335 702 -435 138 -48 309 -89
421 -101 29 -3 58 -7 65 -10 7 -2 52 -6 100 -9 48 -3 101 -8 117 -10 209 -28
2689 -28 3020 0 28 2 82 7 120 10 58 5 190 23 280 39 116 21 334 89 455 142
374 165 694 468 873 829 72 146 153 376 172 495 3 19 10 51 15 70 5 19 12 59
15 89 4 30 8 63 11 74 2 11 6 59 9 106 4 47 8 100 10 117 28 212 28 2684 0
3024 -11 132 -16 181 -31 280 -8 58 -19 121 -24 140 -5 19 -17 66 -26 105 -52
221 -162 463 -301 659 -78 109 -287 316 -401 396 -130 92 -209 134 -407 221
-114 49 -380 113 -560 134 -27 3 -63 8 -80 10 -16 2 -84 7 -150 11 -66 3 -147
9 -180 11 -69 5 -2371 13 -2377 8z m2337 -638 c44 -3 127 -8 185 -11 212 -12
364 -38 529 -92 204 -68 338 -149 481 -294 136 -136 221 -278 285 -474 99
-305 110 -495 110 -1986 0 -1192 -5 -1392 -41 -1690 -27 -219 -120 -471 -232
-630 -60 -84 -189 -213 -273 -273 -110 -78 -327 -174 -439 -194 -14 -2 -52
-10 -85 -18 -228 -51 -497 -60 -1805 -60 -1061 0 -1315 5 -1585 30 -279 26
-546 116 -725 243 -95 67 -230 208 -292 304 -75 114 -150 289 -173 401 -2 10
-6 26 -9 35 -9 28 -16 72 -32 187 -33 242 -39 503 -39 1655 0 934 6 1365 20
1495 2 22 7 67 10 100 24 280 102 521 233 720 59 88 208 237 298 297 170 113
397 195 619 222 22 3 58 8 80 11 59 7 158 13 365 20 102 4 187 9 188 10 6 6
2243 -3 2327 -8z"/>
<path d="M5240 5766 c-172 -56 -281 -201 -289 -383 -10 -249 195 -448 444
-430 128 9 232 64 305 161 123 162 112 390 -24 539 -41 44 -134 103 -191 119
-70 20 -173 17 -245 -6z"/>
<path d="M3388 5295 c-2 -1 -32 -5 -68 -9 -115 -11 -151 -17 -265 -45 -643
-163 -1153 -683 -1304 -1331 -70 -301 -60 -628 28 -926 161 -542 582 -985
1116 -1177 62 -22 162 -50 220 -61 11 -2 31 -7 45 -10 124 -29 374 -40 535
-23 191 20 406 83 587 171 105 51 264 148 315 192 12 10 37 30 55 44 65 50
213 207 282 300 297 398 408 847 340 1372 -9 74 -63 267 -99 359 -237 601
-759 1020 -1400 1124 -83 14 -377 29 -387 20z m302 -644 c500 -82 898 -490
966 -992 79 -588 -297 -1145 -869 -1289 -403 -100 -821 16 -1116 311 -249 250
-370 603 -328 964 54 462 390 849 852 979 50 15 122 30 160 34 88 10 250 7
335 -7z"/>
</g>
</svg>
